<svg width="20" height="570" viewBox="0 0 20 570" fill="none" xmlns="http://www.w3.org/2000/svg">
<circle cx="15.5" cy="429.5" r="4" fill="#CCA365" stroke="#3D4856"/>
<circle cx="4.5" cy="429.5" r="4" fill="#CCA365" stroke="#3D4856"/>
<line x1="4" y1="428.5" x2="16" y2="428.5" stroke="#3D4856"/>
<line x1="4" y1="428.5" x2="16" y2="428.5" stroke="#3D4856"/>
<line x1="4" y1="430.5" x2="16" y2="430.5" stroke="#3D4856"/>
<line x1="4" y1="430.5" x2="16" y2="430.5" stroke="#3D4856"/>
<circle cx="15.5" cy="412.5" r="4" fill="#CCA365" stroke="#3D4856"/>
<circle cx="4.5" cy="412.5" r="4" fill="#CCA365" stroke="#3D4856"/>
<line x1="4" y1="411.5" x2="16" y2="411.5" stroke="#3D4856"/>
<line x1="4" y1="411.5" x2="16" y2="411.5" stroke="#3D4856"/>
<line x1="4" y1="413.5" x2="16" y2="413.5" stroke="#3D4856"/>
<line x1="4" y1="413.5" x2="16" y2="413.5" stroke="#3D4856"/>
<circle cx="15.5" cy="395.5" r="4" fill="#CCA365" stroke="#3D4856"/>
<circle cx="4.5" cy="395.5" r="4" fill="#CCA365" stroke="#3D4856"/>
<line x1="4" y1="394.5" x2="16" y2="394.5" stroke="#3D4856"/>
<line x1="4" y1="394.5" x2="16" y2="394.5" stroke="#3D4856"/>
<line x1="4" y1="396.5" x2="16" y2="396.5" stroke="#3D4856"/>
<line x1="4" y1="396.5" x2="16" y2="396.5" stroke="#3D4856"/>
<circle cx="15.5" cy="378.5" r="4" fill="#CCA365" stroke="#3D4856"/>
<circle cx="4.5" cy="378.5" r="4" fill="#CCA365" stroke="#3D4856"/>
<line x1="4" y1="377.5" x2="16" y2="377.5" stroke="#3D4856"/>
<line x1="4" y1="377.5" x2="16" y2="377.5" stroke="#3D4856"/>
<line x1="4" y1="379.5" x2="16" y2="379.5" stroke="#3D4856"/>
<line x1="4" y1="379.5" x2="16" y2="379.5" stroke="#3D4856"/>
<circle cx="15.5" cy="497.5" r="4" fill="#CCA365" stroke="#3D4856"/>
<circle cx="4.5" cy="497.5" r="4" fill="#CCA365" stroke="#3D4856"/>
<line x1="4" y1="496.5" x2="16" y2="496.5" stroke="#3D4856"/>
<line x1="4" y1="496.5" x2="16" y2="496.5" stroke="#3D4856"/>
<line x1="4" y1="498.5" x2="16" y2="498.5" stroke="#3D4856"/>
<line x1="4" y1="498.5" x2="16" y2="498.5" stroke="#3D4856"/>
<circle cx="15.5" cy="480.5" r="4" fill="#CCA365" stroke="#3D4856"/>
<circle cx="4.5" cy="480.5" r="4" fill="#CCA365" stroke="#3D4856"/>
<line x1="4" y1="479.5" x2="16" y2="479.5" stroke="#3D4856"/>
<line x1="4" y1="479.5" x2="16" y2="479.5" stroke="#3D4856"/>
<line x1="4" y1="481.5" x2="16" y2="481.5" stroke="#3D4856"/>
<line x1="4" y1="481.5" x2="16" y2="481.5" stroke="#3D4856"/>
<circle cx="15.5" cy="463.5" r="4" fill="#CCA365" stroke="#3D4856"/>
<circle cx="4.5" cy="463.5" r="4" fill="#CCA365" stroke="#3D4856"/>
<line x1="4" y1="462.5" x2="16" y2="462.5" stroke="#3D4856"/>
<line x1="4" y1="462.5" x2="16" y2="462.5" stroke="#3D4856"/>
<line x1="4" y1="464.5" x2="16" y2="464.5" stroke="#3D4856"/>
<line x1="4" y1="464.5" x2="16" y2="464.5" stroke="#3D4856"/>
<circle cx="15.5" cy="446.5" r="4" fill="#CCA365" stroke="#3D4856"/>
<circle cx="4.5" cy="446.5" r="4" fill="#CCA365" stroke="#3D4856"/>
<line x1="4" y1="445.5" x2="16" y2="445.5" stroke="#3D4856"/>
<line x1="4" y1="445.5" x2="16" y2="445.5" stroke="#3D4856"/>
<line x1="4" y1="447.5" x2="16" y2="447.5" stroke="#3D4856"/>
<line x1="4" y1="447.5" x2="16" y2="447.5" stroke="#3D4856"/>
<circle cx="15.5" cy="565.5" r="4" fill="#CCA365" stroke="#3D4856"/>
<circle cx="4.5" cy="565.5" r="4" fill="#CCA365" stroke="#3D4856"/>
<line x1="4" y1="564.5" x2="16" y2="564.5" stroke="#3D4856"/>
<line x1="4" y1="564.5" x2="16" y2="564.5" stroke="#3D4856"/>
<line x1="4" y1="566.5" x2="16" y2="566.5" stroke="#3D4856"/>
<line x1="4" y1="566.5" x2="16" y2="566.5" stroke="#3D4856"/>
<circle cx="15.5" cy="548.5" r="4" fill="#CCA365" stroke="#3D4856"/>
<circle cx="4.5" cy="548.5" r="4" fill="#CCA365" stroke="#3D4856"/>
<line x1="4" y1="547.5" x2="16" y2="547.5" stroke="#3D4856"/>
<line x1="4" y1="547.5" x2="16" y2="547.5" stroke="#3D4856"/>
<line x1="4" y1="549.5" x2="16" y2="549.5" stroke="#3D4856"/>
<line x1="4" y1="549.5" x2="16" y2="549.5" stroke="#3D4856"/>
<circle cx="15.5" cy="531.5" r="4" fill="#CCA365" stroke="#3D4856"/>
<circle cx="4.5" cy="531.5" r="4" fill="#CCA365" stroke="#3D4856"/>
<line x1="4" y1="530.5" x2="16" y2="530.5" stroke="#3D4856"/>
<line x1="4" y1="530.5" x2="16" y2="530.5" stroke="#3D4856"/>
<line x1="4" y1="532.5" x2="16" y2="532.5" stroke="#3D4856"/>
<line x1="4" y1="532.5" x2="16" y2="532.5" stroke="#3D4856"/>
<circle cx="15.5" cy="514.5" r="4" fill="#CCA365" stroke="#3D4856"/>
<circle cx="4.5" cy="514.5" r="4" fill="#CCA365" stroke="#3D4856"/>
<line x1="4" y1="513.5" x2="16" y2="513.5" stroke="#3D4856"/>
<line x1="4" y1="513.5" x2="16" y2="513.5" stroke="#3D4856"/>
<line x1="4" y1="515.5" x2="16" y2="515.5" stroke="#3D4856"/>
<line x1="4" y1="515.5" x2="16" y2="515.5" stroke="#3D4856"/>
<circle cx="15.5" cy="157.5" r="4" fill="#CCA365" stroke="#3D4856"/>
<circle cx="4.5" cy="157.5" r="4" fill="#CCA365" stroke="#3D4856"/>
<line x1="4" y1="156.5" x2="16" y2="156.5" stroke="#3D4856"/>
<line x1="4" y1="156.5" x2="16" y2="156.5" stroke="#3D4856"/>
<line x1="4" y1="158.5" x2="16" y2="158.5" stroke="#3D4856"/>
<line x1="4" y1="158.5" x2="16" y2="158.5" stroke="#3D4856"/>
<circle cx="15.5" cy="140.5" r="4" fill="#CCA365" stroke="#3D4856"/>
<circle cx="4.5" cy="140.5" r="4" fill="#CCA365" stroke="#3D4856"/>
<line x1="4" y1="139.5" x2="16" y2="139.5" stroke="#3D4856"/>
<line x1="4" y1="139.5" x2="16" y2="139.5" stroke="#3D4856"/>
<line x1="4" y1="141.5" x2="16" y2="141.5" stroke="#3D4856"/>
<line x1="4" y1="141.5" x2="16" y2="141.5" stroke="#3D4856"/>
<circle cx="15.5" cy="123.5" r="4" fill="#CCA365" stroke="#3D4856"/>
<circle cx="4.5" cy="123.5" r="4" fill="#CCA365" stroke="#3D4856"/>
<line x1="4" y1="122.5" x2="16" y2="122.5" stroke="#3D4856"/>
<line x1="4" y1="122.5" x2="16" y2="122.5" stroke="#3D4856"/>
<line x1="4" y1="124.5" x2="16" y2="124.5" stroke="#3D4856"/>
<line x1="4" y1="124.5" x2="16" y2="124.5" stroke="#3D4856"/>
<circle cx="15.5" cy="106.5" r="4" fill="#CCA365" stroke="#3D4856"/>
<circle cx="4.5" cy="106.5" r="4" fill="#CCA365" stroke="#3D4856"/>
<line x1="4" y1="105.5" x2="16" y2="105.5" stroke="#3D4856"/>
<line x1="4" y1="105.5" x2="16" y2="105.5" stroke="#3D4856"/>
<line x1="4" y1="107.5" x2="16" y2="107.5" stroke="#3D4856"/>
<line x1="4" y1="107.5" x2="16" y2="107.5" stroke="#3D4856"/>
<circle cx="15.5" cy="225.5" r="4" fill="#CCA365" stroke="#3D4856"/>
<circle cx="4.5" cy="225.5" r="4" fill="#CCA365" stroke="#3D4856"/>
<line x1="4" y1="224.5" x2="16" y2="224.5" stroke="#3D4856"/>
<line x1="4" y1="224.5" x2="16" y2="224.5" stroke="#3D4856"/>
<line x1="4" y1="226.5" x2="16" y2="226.5" stroke="#3D4856"/>
<line x1="4" y1="226.5" x2="16" y2="226.5" stroke="#3D4856"/>
<circle cx="15.5" cy="208.5" r="4" fill="#CCA365" stroke="#3D4856"/>
<circle cx="4.5" cy="208.5" r="4" fill="#CCA365" stroke="#3D4856"/>
<line x1="4" y1="207.5" x2="16" y2="207.5" stroke="#3D4856"/>
<line x1="4" y1="207.5" x2="16" y2="207.5" stroke="#3D4856"/>
<line x1="4" y1="209.5" x2="16" y2="209.5" stroke="#3D4856"/>
<line x1="4" y1="209.5" x2="16" y2="209.5" stroke="#3D4856"/>
<circle cx="15.5" cy="191.5" r="4" fill="#CCA365" stroke="#3D4856"/>
<circle cx="4.5" cy="191.5" r="4" fill="#CCA365" stroke="#3D4856"/>
<line x1="4" y1="190.5" x2="16" y2="190.5" stroke="#3D4856"/>
<line x1="4" y1="190.5" x2="16" y2="190.5" stroke="#3D4856"/>
<line x1="4" y1="192.5" x2="16" y2="192.5" stroke="#3D4856"/>
<line x1="4" y1="192.5" x2="16" y2="192.5" stroke="#3D4856"/>
<circle cx="15.5" cy="174.5" r="4" fill="#CCA365" stroke="#3D4856"/>
<circle cx="4.5" cy="174.5" r="4" fill="#CCA365" stroke="#3D4856"/>
<line x1="4" y1="173.5" x2="16" y2="173.5" stroke="#3D4856"/>
<line x1="4" y1="173.5" x2="16" y2="173.5" stroke="#3D4856"/>
<line x1="4" y1="175.5" x2="16" y2="175.5" stroke="#3D4856"/>
<line x1="4" y1="175.5" x2="16" y2="175.5" stroke="#3D4856"/>
<circle cx="15.5" cy="55.5" r="4" fill="#CCA365" stroke="#3D4856"/>
<circle cx="4.5" cy="55.5" r="4" fill="#CCA365" stroke="#3D4856"/>
<line x1="4" y1="54.5" x2="16" y2="54.5" stroke="#3D4856"/>
<line x1="4" y1="54.5" x2="16" y2="54.5" stroke="#3D4856"/>
<line x1="4" y1="56.5" x2="16" y2="56.5" stroke="#3D4856"/>
<line x1="4" y1="56.5" x2="16" y2="56.5" stroke="#3D4856"/>
<circle cx="15.5" cy="38.5" r="4" fill="#CCA365" stroke="#3D4856"/>
<circle cx="4.5" cy="38.5" r="4" fill="#CCA365" stroke="#3D4856"/>
<line x1="4" y1="37.5" x2="16" y2="37.5" stroke="#3D4856"/>
<line x1="4" y1="37.5" x2="16" y2="37.5" stroke="#3D4856"/>
<line x1="4" y1="39.5" x2="16" y2="39.5" stroke="#3D4856"/>
<line x1="4" y1="39.5" x2="16" y2="39.5" stroke="#3D4856"/>
<circle cx="15.5" cy="21.5" r="4" fill="#CCA365" stroke="#3D4856"/>
<circle cx="4.5" cy="21.5" r="4" fill="#CCA365" stroke="#3D4856"/>
<line x1="4" y1="20.5" x2="16" y2="20.5" stroke="#3D4856"/>
<line x1="4" y1="20.5" x2="16" y2="20.5" stroke="#3D4856"/>
<line x1="4" y1="22.5" x2="16" y2="22.5" stroke="#3D4856"/>
<line x1="4" y1="22.5" x2="16" y2="22.5" stroke="#3D4856"/>
<circle cx="15.5" cy="4.5" r="4" fill="#CCA365" stroke="#3D4856"/>
<circle cx="4.5" cy="4.5" r="4" fill="#CCA365" stroke="#3D4856"/>
<line x1="4" y1="3.5" x2="16" y2="3.5" stroke="#3D4856"/>
<line x1="4" y1="3.5" x2="16" y2="3.5" stroke="#3D4856"/>
<line x1="4" y1="5.5" x2="16" y2="5.5" stroke="#3D4856"/>
<line x1="4" y1="5.5" x2="16" y2="5.5" stroke="#3D4856"/>
<circle cx="15.5" cy="89.5" r="4" fill="#CCA365" stroke="#3D4856"/>
<circle cx="4.5" cy="89.5" r="4" fill="#CCA365" stroke="#3D4856"/>
<line x1="4" y1="88.5" x2="16" y2="88.5" stroke="#3D4856"/>
<line x1="4" y1="88.5" x2="16" y2="88.5" stroke="#3D4856"/>
<line x1="4" y1="90.5" x2="16" y2="90.5" stroke="#3D4856"/>
<line x1="4" y1="90.5" x2="16" y2="90.5" stroke="#3D4856"/>
<circle cx="15.5" cy="72.5" r="4" fill="#CCA365" stroke="#3D4856"/>
<circle cx="4.5" cy="72.5" r="4" fill="#CCA365" stroke="#3D4856"/>
<line x1="4" y1="71.5" x2="16" y2="71.5" stroke="#3D4856"/>
<line x1="4" y1="71.5" x2="16" y2="71.5" stroke="#3D4856"/>
<line x1="4" y1="73.5" x2="16" y2="73.5" stroke="#3D4856"/>
<line x1="4" y1="73.5" x2="16" y2="73.5" stroke="#3D4856"/>
<circle cx="15.5" cy="293.5" r="4" fill="#CCA365" stroke="#3D4856"/>
<circle cx="4.5" cy="293.5" r="4" fill="#CCA365" stroke="#3D4856"/>
<line x1="4" y1="292.5" x2="16" y2="292.5" stroke="#3D4856"/>
<line x1="4" y1="292.5" x2="16" y2="292.5" stroke="#3D4856"/>
<line x1="4" y1="294.5" x2="16" y2="294.5" stroke="#3D4856"/>
<line x1="4" y1="294.5" x2="16" y2="294.5" stroke="#3D4856"/>
<circle cx="15.5" cy="276.5" r="4" fill="#CCA365" stroke="#3D4856"/>
<circle cx="4.5" cy="276.5" r="4" fill="#CCA365" stroke="#3D4856"/>
<line x1="4" y1="275.5" x2="16" y2="275.5" stroke="#3D4856"/>
<line x1="4" y1="275.5" x2="16" y2="275.5" stroke="#3D4856"/>
<line x1="4" y1="277.5" x2="16" y2="277.5" stroke="#3D4856"/>
<line x1="4" y1="277.5" x2="16" y2="277.5" stroke="#3D4856"/>
<circle cx="15.5" cy="259.5" r="4" fill="#CCA365" stroke="#3D4856"/>
<circle cx="4.5" cy="259.5" r="4" fill="#CCA365" stroke="#3D4856"/>
<line x1="4" y1="258.5" x2="16" y2="258.5" stroke="#3D4856"/>
<line x1="4" y1="258.5" x2="16" y2="258.5" stroke="#3D4856"/>
<line x1="4" y1="260.5" x2="16" y2="260.5" stroke="#3D4856"/>
<line x1="4" y1="260.5" x2="16" y2="260.5" stroke="#3D4856"/>
<circle cx="15.5" cy="242.5" r="4" fill="#CCA365" stroke="#3D4856"/>
<circle cx="4.5" cy="242.5" r="4" fill="#CCA365" stroke="#3D4856"/>
<line x1="4" y1="241.5" x2="16" y2="241.5" stroke="#3D4856"/>
<line x1="4" y1="241.5" x2="16" y2="241.5" stroke="#3D4856"/>
<line x1="4" y1="243.5" x2="16" y2="243.5" stroke="#3D4856"/>
<line x1="4" y1="243.5" x2="16" y2="243.5" stroke="#3D4856"/>
<circle cx="15.5" cy="361.5" r="4" fill="#CCA365" stroke="#3D4856"/>
<circle cx="4.5" cy="361.5" r="4" fill="#CCA365" stroke="#3D4856"/>
<line x1="4" y1="360.5" x2="16" y2="360.5" stroke="#3D4856"/>
<line x1="4" y1="360.5" x2="16" y2="360.5" stroke="#3D4856"/>
<line x1="4" y1="362.5" x2="16" y2="362.5" stroke="#3D4856"/>
<line x1="4" y1="362.5" x2="16" y2="362.5" stroke="#3D4856"/>
<circle cx="15.5" cy="344.5" r="4" fill="#CCA365" stroke="#3D4856"/>
<circle cx="4.5" cy="344.5" r="4" fill="#CCA365" stroke="#3D4856"/>
<line x1="4" y1="343.5" x2="16" y2="343.5" stroke="#3D4856"/>
<line x1="4" y1="343.5" x2="16" y2="343.5" stroke="#3D4856"/>
<line x1="4" y1="345.5" x2="16" y2="345.5" stroke="#3D4856"/>
<line x1="4" y1="345.5" x2="16" y2="345.5" stroke="#3D4856"/>
<circle cx="15.5" cy="327.5" r="4" fill="#CCA365" stroke="#3D4856"/>
<circle cx="4.5" cy="327.5" r="4" fill="#CCA365" stroke="#3D4856"/>
<line x1="4" y1="326.5" x2="16" y2="326.5" stroke="#3D4856"/>
<line x1="4" y1="326.5" x2="16" y2="326.5" stroke="#3D4856"/>
<line x1="4" y1="328.5" x2="16" y2="328.5" stroke="#3D4856"/>
<line x1="4" y1="328.5" x2="16" y2="328.5" stroke="#3D4856"/>
<circle cx="15.5" cy="310.5" r="4" fill="#CCA365" stroke="#3D4856"/>
<circle cx="4.5" cy="310.5" r="4" fill="#CCA365" stroke="#3D4856"/>
<line x1="4" y1="309.5" x2="16" y2="309.5" stroke="#3D4856"/>
<line x1="4" y1="309.5" x2="16" y2="309.5" stroke="#3D4856"/>
<line x1="4" y1="311.5" x2="16" y2="311.5" stroke="#3D4856"/>
<line x1="4" y1="311.5" x2="16" y2="311.5" stroke="#3D4856"/>
</svg>
