<svg width="51" height="50" viewBox="0 0 51 50" fill="none" xmlns="http://www.w3.org/2000/svg">
<path fill-rule="evenodd" clip-rule="evenodd" d="M0 0H50.1044V50H0V0ZM38.3027 41.9167C35.9791 41.9167 34.666 40.7083 33.6576 39.0625L29.8309 41.2812C31.2129 44.0062 34.0376 46.0854 38.4113 46.0854C42.8831 46.0854 46.2129 43.7687 46.2129 39.5375C46.2129 35.6146 43.9541 33.8708 39.9541 32.1562L38.7766 31.6542C36.7557 30.7792 35.881 30.2104 35.881 28.8C35.881 27.6604 36.7578 26.7875 38.1357 26.7875C39.4864 26.7875 40.357 27.3562 41.1649 28.8L44.8309 26.4521C43.2798 23.7292 41.1294 22.6896 38.1357 22.6896C33.9311 22.6896 31.2401 25.3729 31.2401 28.8979C31.2401 32.7208 33.4948 34.5312 36.8935 35.975L38.071 36.4792C40.2192 37.4167 41.499 37.9875 41.499 39.5979C41.499 40.9437 40.2526 41.9167 38.3027 41.9167ZM20.0564 41.8854C18.4384 41.8854 17.7641 40.7812 17.0251 39.4687L13.1921 41.7854C14.3027 44.1312 16.4864 46.0771 20.2547 46.0771C24.428 46.0771 27.286 43.8625 27.286 38.9979V22.9562H22.5783V38.9354C22.5783 41.2833 21.6013 41.8854 20.0543 41.8854H20.0564Z" fill="#337AB7"/>
</svg>
