<svg width="50" height="50" viewBox="0 0 50 50" fill="none" xmlns="http://www.w3.org/2000/svg">
<path d="M3.55 25C3.55 21.9 4.225 18.95 5.4 16.25L15.65 44.3C12.0211 42.548 8.96034 39.8072 6.81982 36.393C4.6793 32.9788 3.54591 29.0297 3.55 25ZM39.475 23.925C39.475 25.75 38.75 27.875 37.85 30.85L35.7 38L27.95 15L30.4 14.75C31.575 14.6 31.425 12.9 30.275 12.975C30.275 12.975 26.8 13.25 24.55 13.25L18.9 12.975C17.75 12.9 17.625 14.675 18.75 14.75L21.025 15L24.375 24.1L19.675 38.175L11.85 15L14.325 14.75C15.475 14.6 15.325 12.9 14.175 12.975C14.175 12.975 10.7 13.25 8.45 13.25L7.075 13.225C10.925 7.4 17.5 3.55 25 3.55C30.575 3.55 35.675 5.7 39.475 9.175H39.2C37.1 9.175 35.6 11 35.6 12.975C35.6 14.75 36.625 16.25 37.7 18C38.525 19.425 39.475 21.25 39.475 23.925ZM25.375 26.875L31.975 44.925L32.125 45.225C29.9 46.025 27.5 46.45 25 46.45C22.9 46.45 20.875 46.15 18.95 45.575L25.375 26.875ZM43.825 14.7C45.5535 17.8575 46.4564 21.4004 46.45 25C46.45 32.9 42.15 39.825 35.775 43.525L42.325 24.6C43.55 21.55 43.975 19.1 43.975 16.925L43.825 14.7ZM25 0C28.283 0 31.5339 0.646644 34.5671 1.90301C37.6002 3.15938 40.3562 5.00087 42.6777 7.32233C44.9991 9.6438 46.8406 12.3998 48.097 15.4329C49.3534 18.4661 50 21.717 50 25C50 31.6304 47.3661 37.9893 42.6777 42.6777C37.9893 47.3661 31.6304 50 25 50C21.717 50 18.4661 49.3534 15.4329 48.097C12.3998 46.8406 9.6438 44.9991 7.32233 42.6777C2.63392 37.9893 0 31.6304 0 25C0 18.3696 2.63392 12.0107 7.32233 7.32233C12.0107 2.63392 18.3696 0 25 0ZM25 48.85C38.15 48.85 48.85 38.15 48.85 25C48.85 11.85 38.15 1.15 25 1.15C11.85 1.15 1.15 11.85 1.15 25C1.15 38.15 11.85 48.85 25 48.85Z" fill="#337AB7"/>
</svg>
