<svg width="11" height="539" viewBox="0 0 11 539" fill="none" xmlns="http://www.w3.org/2000/svg">
<path d="M9.84064 405.73C9.84064 406.817 9.54377 407.779 9.09 408.454C8.63413 409.132 8.05812 409.476 7.48764 409.476C6.91716 409.476 6.34116 409.132 5.88528 408.454C5.43151 407.779 5.13464 406.817 5.13464 405.73C5.13464 404.644 5.43151 403.682 5.88528 403.007C6.34116 402.328 6.91716 401.984 7.48764 401.984C8.05812 401.984 8.63413 402.328 9.09 403.007C9.54377 403.682 9.84064 404.644 9.84064 405.73Z" fill="#CCA365" stroke="#3D4856"/>
<line x1="0.195312" y1="404.76" x2="7.80331" y2="404.76" stroke="#3D4856"/>
<line x1="0.195312" y1="404.76" x2="7.80331" y2="404.76" stroke="#3D4856"/>
<line x1="0.195312" y1="406.646" x2="7.80331" y2="406.646" stroke="#3D4856"/>
<line x1="0.195312" y1="406.646" x2="7.80331" y2="406.646" stroke="#3D4856"/>
<path d="M9.84064 389.691C9.84064 390.778 9.54377 391.739 9.09 392.415C8.63413 393.093 8.05812 393.437 7.48764 393.437C6.91716 393.437 6.34116 393.093 5.88528 392.415C5.43151 391.739 5.13464 390.778 5.13464 389.691C5.13464 388.605 5.43151 387.643 5.88528 386.968C6.34116 386.289 6.91716 385.945 7.48764 385.945C8.05812 385.945 8.63413 386.289 9.09 386.968C9.54377 387.643 9.84064 388.605 9.84064 389.691Z" fill="#CCA365" stroke="#3D4856"/>
<line x1="0.195312" y1="388.719" x2="7.80331" y2="388.719" stroke="#3D4856"/>
<line x1="0.195312" y1="388.719" x2="7.80331" y2="388.719" stroke="#3D4856"/>
<line x1="0.195312" y1="390.609" x2="7.80331" y2="390.609" stroke="#3D4856"/>
<line x1="0.195312" y1="390.609" x2="7.80331" y2="390.609" stroke="#3D4856"/>
<path d="M9.84064 373.654C9.84064 374.741 9.54377 375.702 9.09 376.378C8.63413 377.056 8.05812 377.4 7.48764 377.4C6.91716 377.4 6.34116 377.056 5.88528 376.378C5.43151 375.702 5.13464 374.741 5.13464 373.654C5.13464 372.567 5.43151 371.606 5.88528 370.931C6.34116 370.252 6.91716 369.908 7.48764 369.908C8.05812 369.908 8.63413 370.252 9.09 370.931C9.54377 371.606 9.84064 372.567 9.84064 373.654Z" fill="#CCA365" stroke="#3D4856"/>
<line x1="0.195312" y1="372.682" x2="7.80331" y2="372.682" stroke="#3D4856"/>
<line x1="0.195312" y1="372.682" x2="7.80331" y2="372.682" stroke="#3D4856"/>
<line x1="0.195312" y1="374.57" x2="7.80331" y2="374.57" stroke="#3D4856"/>
<line x1="0.195312" y1="374.57" x2="7.80331" y2="374.57" stroke="#3D4856"/>
<path d="M9.84064 357.609C9.84064 358.696 9.54377 359.657 9.09 360.333C8.63413 361.011 8.05812 361.355 7.48764 361.355C6.91716 361.355 6.34116 361.011 5.88528 360.333C5.43151 359.657 5.13464 358.696 5.13464 357.609C5.13464 356.522 5.43151 355.561 5.88528 354.886C6.34116 354.207 6.91716 353.863 7.48764 353.863C8.05812 353.863 8.63413 354.207 9.09 354.886C9.54377 355.561 9.84064 356.522 9.84064 357.609Z" fill="#CCA365" stroke="#3D4856"/>
<line x1="0.195312" y1="356.637" x2="7.80331" y2="356.637" stroke="#3D4856"/>
<line x1="0.195312" y1="356.637" x2="7.80331" y2="356.637" stroke="#3D4856"/>
<line x1="0.195312" y1="358.527" x2="7.80331" y2="358.527" stroke="#3D4856"/>
<line x1="0.195312" y1="358.527" x2="7.80331" y2="358.527" stroke="#3D4856"/>
<path d="M9.84064 469.894C9.84064 470.981 9.54377 471.943 9.09 472.618C8.63413 473.296 8.05812 473.64 7.48764 473.64C6.91716 473.64 6.34116 473.296 5.88528 472.618C5.43151 471.943 5.13464 470.981 5.13464 469.894C5.13464 468.808 5.43151 467.846 5.88528 467.171C6.34116 466.492 6.91716 466.148 7.48764 466.148C8.05812 466.148 8.63413 466.492 9.09 467.171C9.54377 467.846 9.84064 468.808 9.84064 469.894Z" fill="#CCA365" stroke="#3D4856"/>
<line x1="0.195312" y1="468.922" x2="7.80331" y2="468.922" stroke="#3D4856"/>
<line x1="0.195312" y1="468.922" x2="7.80331" y2="468.922" stroke="#3D4856"/>
<line x1="0.195312" y1="470.812" x2="7.80331" y2="470.812" stroke="#3D4856"/>
<line x1="0.195312" y1="470.812" x2="7.80331" y2="470.812" stroke="#3D4856"/>
<path d="M9.84064 453.855C9.84064 454.942 9.54377 455.904 9.09 456.579C8.63413 457.257 8.05812 457.601 7.48764 457.601C6.91716 457.601 6.34116 457.257 5.88528 456.579C5.43151 455.904 5.13464 454.942 5.13464 453.855C5.13464 452.769 5.43151 451.807 5.88528 451.132C6.34116 450.453 6.91716 450.109 7.48764 450.109C8.05812 450.109 8.63413 450.453 9.09 451.132C9.54377 451.807 9.84064 452.769 9.84064 453.855Z" fill="#CCA365" stroke="#3D4856"/>
<line x1="0.195312" y1="452.883" x2="7.80331" y2="452.883" stroke="#3D4856"/>
<line x1="0.195312" y1="452.883" x2="7.80331" y2="452.883" stroke="#3D4856"/>
<line x1="0.195312" y1="454.771" x2="7.80331" y2="454.771" stroke="#3D4856"/>
<line x1="0.195312" y1="454.771" x2="7.80331" y2="454.771" stroke="#3D4856"/>
<path d="M9.84064 437.81C9.84064 438.897 9.54377 439.859 9.09 440.534C8.63413 441.212 8.05812 441.556 7.48764 441.556C6.91716 441.556 6.34116 441.212 5.88528 440.534C5.43151 439.859 5.13464 438.897 5.13464 437.81C5.13464 436.724 5.43151 435.762 5.88528 435.087C6.34116 434.408 6.91716 434.064 7.48764 434.064C8.05812 434.064 8.63413 434.408 9.09 435.087C9.54377 435.762 9.84064 436.724 9.84064 437.81Z" fill="#CCA365" stroke="#3D4856"/>
<line x1="0.195312" y1="436.838" x2="7.80331" y2="436.838" stroke="#3D4856"/>
<line x1="0.195312" y1="436.838" x2="7.80331" y2="436.838" stroke="#3D4856"/>
<line x1="0.195312" y1="438.727" x2="7.80331" y2="438.727" stroke="#3D4856"/>
<line x1="0.195312" y1="438.727" x2="7.80331" y2="438.727" stroke="#3D4856"/>
<path d="M9.84064 421.773C9.84064 422.86 9.54377 423.821 9.09 424.497C8.63413 425.175 8.05812 425.519 7.48764 425.519C6.91716 425.519 6.34116 425.175 5.88528 424.497C5.43151 423.821 5.13464 422.86 5.13464 421.773C5.13464 420.687 5.43151 419.725 5.88528 419.05C6.34116 418.371 6.91716 418.027 7.48764 418.027C8.05812 418.027 8.63413 418.371 9.09 419.05C9.54377 419.725 9.84064 420.687 9.84064 421.773Z" fill="#CCA365" stroke="#3D4856"/>
<line x1="0.195312" y1="420.801" x2="7.80331" y2="420.801" stroke="#3D4856"/>
<line x1="0.195312" y1="420.801" x2="7.80331" y2="420.801" stroke="#3D4856"/>
<line x1="0.195312" y1="422.689" x2="7.80331" y2="422.689" stroke="#3D4856"/>
<line x1="0.195312" y1="422.689" x2="7.80331" y2="422.689" stroke="#3D4856"/>
<path d="M9.84064 534.055C9.84064 535.141 9.54377 536.103 9.09 536.778C8.63413 537.457 8.05812 537.801 7.48764 537.801C6.91716 537.801 6.34116 537.457 5.88528 536.778C5.43151 536.103 5.13464 535.141 5.13464 534.055C5.13464 532.968 5.43151 532.006 5.88528 531.331C6.34116 530.653 6.91716 530.309 7.48764 530.309C8.05812 530.309 8.63413 530.653 9.09 531.331C9.54377 532.006 9.84064 532.968 9.84064 534.055Z" fill="#CCA365" stroke="#3D4856"/>
<line x1="0.195312" y1="533.082" x2="7.80331" y2="533.082" stroke="#3D4856"/>
<line x1="0.195312" y1="533.082" x2="7.80331" y2="533.082" stroke="#3D4856"/>
<line x1="0.195312" y1="534.969" x2="7.80331" y2="534.969" stroke="#3D4856"/>
<line x1="0.195312" y1="534.969" x2="7.80331" y2="534.969" stroke="#3D4856"/>
<path d="M9.84064 518.012C9.84064 519.098 9.54377 520.06 9.09 520.735C8.63413 521.414 8.05812 521.758 7.48764 521.758C6.91716 521.758 6.34116 521.414 5.88528 520.735C5.43151 520.06 5.13464 519.098 5.13464 518.012C5.13464 516.925 5.43151 515.963 5.88528 515.288C6.34116 514.61 6.91716 514.266 7.48764 514.266C8.05812 514.266 8.63413 514.61 9.09 515.288C9.54377 515.963 9.84064 516.925 9.84064 518.012Z" fill="#CCA365" stroke="#3D4856"/>
<line x1="0.195312" y1="517.039" x2="7.80331" y2="517.039" stroke="#3D4856"/>
<line x1="0.195312" y1="517.039" x2="7.80331" y2="517.039" stroke="#3D4856"/>
<line x1="0.195312" y1="518.928" x2="7.80331" y2="518.928" stroke="#3D4856"/>
<line x1="0.195312" y1="518.928" x2="7.80331" y2="518.928" stroke="#3D4856"/>
<path d="M9.84064 501.976C9.84064 503.063 9.54377 504.025 9.09 504.7C8.63413 505.378 8.05812 505.722 7.48764 505.722C6.91716 505.722 6.34116 505.378 5.88528 504.7C5.43151 504.025 5.13464 503.063 5.13464 501.976C5.13464 500.89 5.43151 499.928 5.88528 499.253C6.34116 498.574 6.91716 498.23 7.48764 498.23C8.05812 498.23 8.63413 498.574 9.09 499.253C9.54377 499.928 9.84064 500.89 9.84064 501.976Z" fill="#CCA365" stroke="#3D4856"/>
<line x1="0.195312" y1="501.004" x2="7.80331" y2="501.004" stroke="#3D4856"/>
<line x1="0.195312" y1="501.004" x2="7.80331" y2="501.004" stroke="#3D4856"/>
<line x1="0.195312" y1="502.895" x2="7.80331" y2="502.895" stroke="#3D4856"/>
<line x1="0.195312" y1="502.895" x2="7.80331" y2="502.895" stroke="#3D4856"/>
<path d="M9.84064 485.932C9.84064 487.018 9.54377 487.98 9.09 488.655C8.63413 489.333 8.05812 489.677 7.48764 489.677C6.91716 489.677 6.34116 489.333 5.88528 488.655C5.43151 487.98 5.13464 487.018 5.13464 485.932C5.13464 484.845 5.43151 483.883 5.88528 483.208C6.34116 482.53 6.91716 482.186 7.48764 482.186C8.05812 482.186 8.63413 482.53 9.09 483.208C9.54377 483.883 9.84064 484.845 9.84064 485.932Z" fill="#CCA365" stroke="#3D4856"/>
<line x1="0.195312" y1="484.961" x2="7.80331" y2="484.961" stroke="#3D4856"/>
<line x1="0.195312" y1="484.961" x2="7.80331" y2="484.961" stroke="#3D4856"/>
<line x1="0.195312" y1="486.848" x2="7.80331" y2="486.848" stroke="#3D4856"/>
<line x1="0.195312" y1="486.848" x2="7.80331" y2="486.848" stroke="#3D4856"/>
<path d="M9.84064 149.086C9.84064 150.173 9.54377 151.134 9.09 151.809C8.63413 152.488 8.05812 152.832 7.48764 152.832C6.91716 152.832 6.34116 152.488 5.88528 151.809C5.43151 151.134 5.13464 150.173 5.13464 149.086C5.13464 147.999 5.43151 147.038 5.88528 146.362C6.34116 145.684 6.91716 145.34 7.48764 145.34C8.05812 145.34 8.63413 145.684 9.09 146.362C9.54377 147.038 9.84064 147.999 9.84064 149.086Z" fill="#CCA365" stroke="#3D4856"/>
<line x1="0.195312" y1="148.113" x2="7.80331" y2="148.113" stroke="#3D4856"/>
<line x1="0.195312" y1="148.113" x2="7.80331" y2="148.113" stroke="#3D4856"/>
<line x1="0.195312" y1="150.004" x2="7.80331" y2="150.004" stroke="#3D4856"/>
<line x1="0.195312" y1="150.004" x2="7.80331" y2="150.004" stroke="#3D4856"/>
<path d="M9.84064 133.049C9.84064 134.135 9.54377 135.097 9.09 135.772C8.63413 136.451 8.05812 136.795 7.48764 136.795C6.91716 136.795 6.34116 136.451 5.88528 135.772C5.43151 135.097 5.13464 134.135 5.13464 133.049C5.13464 131.962 5.43151 131.001 5.88528 130.325C6.34116 129.647 6.91716 129.303 7.48764 129.303C8.05812 129.303 8.63413 129.647 9.09 130.325C9.54377 131.001 9.84064 131.962 9.84064 133.049Z" fill="#CCA365" stroke="#3D4856"/>
<line x1="0.195312" y1="132.076" x2="7.80331" y2="132.076" stroke="#3D4856"/>
<line x1="0.195312" y1="132.076" x2="7.80331" y2="132.076" stroke="#3D4856"/>
<line x1="0.195312" y1="133.965" x2="7.80331" y2="133.965" stroke="#3D4856"/>
<line x1="0.195312" y1="133.965" x2="7.80331" y2="133.965" stroke="#3D4856"/>
<path d="M9.84064 117.006C9.84064 118.092 9.54377 119.054 9.09 119.729C8.63413 120.408 8.05812 120.752 7.48764 120.752C6.91716 120.752 6.34116 120.408 5.88528 119.729C5.43151 119.054 5.13464 118.092 5.13464 117.006C5.13464 115.919 5.43151 114.958 5.88528 114.282C6.34116 113.604 6.91716 113.26 7.48764 113.26C8.05812 113.26 8.63413 113.604 9.09 114.282C9.54377 114.958 9.84064 115.919 9.84064 117.006Z" fill="#CCA365" stroke="#3D4856"/>
<line x1="0.195312" y1="116.033" x2="7.80331" y2="116.033" stroke="#3D4856"/>
<line x1="0.195312" y1="116.033" x2="7.80331" y2="116.033" stroke="#3D4856"/>
<line x1="0.195312" y1="117.922" x2="7.80331" y2="117.922" stroke="#3D4856"/>
<line x1="0.195312" y1="117.922" x2="7.80331" y2="117.922" stroke="#3D4856"/>
<path d="M9.84064 100.969C9.84064 102.055 9.54377 103.017 9.09 103.692C8.63413 104.371 8.05812 104.715 7.48764 104.715C6.91716 104.715 6.34116 104.371 5.88528 103.692C5.43151 103.017 5.13464 102.055 5.13464 100.969C5.13464 99.8819 5.43151 98.9205 5.88528 98.2451C6.34116 97.5667 6.91716 97.2227 7.48764 97.2227C8.05812 97.2227 8.63413 97.5667 9.09 98.2451C9.54377 98.9205 9.84064 99.8819 9.84064 100.969Z" fill="#CCA365" stroke="#3D4856"/>
<line x1="0.195312" y1="99.9961" x2="7.80331" y2="99.9961" stroke="#3D4856"/>
<line x1="0.195312" y1="99.9961" x2="7.80331" y2="99.9961" stroke="#3D4856"/>
<line x1="0.195312" y1="101.887" x2="7.80331" y2="101.887" stroke="#3D4856"/>
<line x1="0.195312" y1="101.887" x2="7.80331" y2="101.887" stroke="#3D4856"/>
<path d="M9.84064 213.246C9.84064 214.333 9.54377 215.294 9.09 215.969C8.63413 216.648 8.05812 216.992 7.48764 216.992C6.91716 216.992 6.34116 216.648 5.88528 215.969C5.43151 215.294 5.13464 214.333 5.13464 213.246C5.13464 212.159 5.43151 211.198 5.88528 210.522C6.34116 209.844 6.91716 209.5 7.48764 209.5C8.05812 209.5 8.63413 209.844 9.09 210.522C9.54377 211.198 9.84064 212.159 9.84064 213.246Z" fill="#CCA365" stroke="#3D4856"/>
<line x1="0.195312" y1="212.275" x2="7.80331" y2="212.275" stroke="#3D4856"/>
<line x1="0.195312" y1="212.275" x2="7.80331" y2="212.275" stroke="#3D4856"/>
<line x1="0.195312" y1="214.16" x2="7.80331" y2="214.16" stroke="#3D4856"/>
<line x1="0.195312" y1="214.16" x2="7.80331" y2="214.16" stroke="#3D4856"/>
<path d="M9.84064 197.207C9.84064 198.294 9.54377 199.255 9.09 199.93C8.63413 200.609 8.05812 200.953 7.48764 200.953C6.91716 200.953 6.34116 200.609 5.88528 199.93C5.43151 199.255 5.13464 198.294 5.13464 197.207C5.13464 196.12 5.43151 195.159 5.88528 194.483C6.34116 193.805 6.91716 193.461 7.48764 193.461C8.05812 193.461 8.63413 193.805 9.09 194.483C9.54377 195.159 9.84064 196.12 9.84064 197.207Z" fill="#CCA365" stroke="#3D4856"/>
<line x1="0.195312" y1="196.234" x2="7.80331" y2="196.234" stroke="#3D4856"/>
<line x1="0.195312" y1="196.234" x2="7.80331" y2="196.234" stroke="#3D4856"/>
<line x1="0.195312" y1="198.125" x2="7.80331" y2="198.125" stroke="#3D4856"/>
<line x1="0.195312" y1="198.125" x2="7.80331" y2="198.125" stroke="#3D4856"/>
<path d="M9.84064 181.168C9.84064 182.255 9.54377 183.216 9.09 183.891C8.63413 184.57 8.05812 184.914 7.48764 184.914C6.91716 184.914 6.34116 184.57 5.88528 183.891C5.43151 183.216 5.13464 182.255 5.13464 181.168C5.13464 180.081 5.43151 179.12 5.88528 178.444C6.34116 177.766 6.91716 177.422 7.48764 177.422C8.05812 177.422 8.63413 177.766 9.09 178.444C9.54377 179.12 9.84064 180.081 9.84064 181.168Z" fill="#CCA365" stroke="#3D4856"/>
<line x1="0.195312" y1="180.195" x2="7.80331" y2="180.195" stroke="#3D4856"/>
<line x1="0.195312" y1="180.195" x2="7.80331" y2="180.195" stroke="#3D4856"/>
<line x1="0.195312" y1="182.086" x2="7.80331" y2="182.086" stroke="#3D4856"/>
<line x1="0.195312" y1="182.086" x2="7.80331" y2="182.086" stroke="#3D4856"/>
<path d="M9.84064 165.125C9.84064 166.212 9.54377 167.173 9.09 167.848C8.63413 168.527 8.05812 168.871 7.48764 168.871C6.91716 168.871 6.34116 168.527 5.88528 167.848C5.43151 167.173 5.13464 166.212 5.13464 165.125C5.13464 164.038 5.43151 163.077 5.88528 162.401C6.34116 161.723 6.91716 161.379 7.48764 161.379C8.05812 161.379 8.63413 161.723 9.09 162.401C9.54377 163.077 9.84064 164.038 9.84064 165.125Z" fill="#CCA365" stroke="#3D4856"/>
<line x1="0.195312" y1="164.154" x2="7.80331" y2="164.154" stroke="#3D4856"/>
<line x1="0.195312" y1="164.154" x2="7.80331" y2="164.154" stroke="#3D4856"/>
<line x1="0.195312" y1="166.043" x2="7.80331" y2="166.043" stroke="#3D4856"/>
<line x1="0.195312" y1="166.043" x2="7.80331" y2="166.043" stroke="#3D4856"/>
<path d="M9.84064 52.8456C9.84064 53.9323 9.54377 54.8938 9.09 55.5691C8.63413 56.2475 8.05812 56.5915 7.48764 56.5915C6.91716 56.5915 6.34116 56.2475 5.88528 55.5691C5.43151 54.8938 5.13464 53.9323 5.13464 52.8456C5.13464 51.7588 5.43151 50.7974 5.88528 50.1221C6.34116 49.4436 6.91716 49.0996 7.48764 49.0996C8.05812 49.0996 8.63413 49.4436 9.09 50.1221C9.54377 50.7974 9.84064 51.7588 9.84064 52.8456Z" fill="#CCA365" stroke="#3D4856"/>
<line x1="0.195312" y1="51.875" x2="7.80331" y2="51.875" stroke="#3D4856"/>
<line x1="0.195312" y1="51.875" x2="7.80331" y2="51.875" stroke="#3D4856"/>
<line x1="0.195312" y1="53.7617" x2="7.80331" y2="53.7617" stroke="#3D4856"/>
<line x1="0.195312" y1="53.7617" x2="7.80331" y2="53.7617" stroke="#3D4856"/>
<path d="M9.84064 36.8026C9.84064 37.8894 9.54377 38.8508 9.09 39.5261C8.63413 40.2046 8.05812 40.5486 7.48764 40.5486C6.91716 40.5486 6.34116 40.2046 5.88528 39.5261C5.43151 38.8508 5.13464 37.8894 5.13464 36.8026C5.13464 35.7159 5.43151 34.7544 5.88528 34.0791C6.34116 33.4007 6.91716 33.0566 7.48764 33.0566C8.05812 33.0566 8.63413 33.4007 9.09 34.0791C9.54377 34.7544 9.84064 35.7159 9.84064 36.8026Z" fill="#CCA365" stroke="#3D4856"/>
<line x1="0.195312" y1="35.8281" x2="7.80331" y2="35.8281" stroke="#3D4856"/>
<line x1="0.195312" y1="35.8281" x2="7.80331" y2="35.8281" stroke="#3D4856"/>
<line x1="0.195312" y1="37.7188" x2="7.80331" y2="37.7188" stroke="#3D4856"/>
<line x1="0.195312" y1="37.7188" x2="7.80331" y2="37.7188" stroke="#3D4856"/>
<path d="M9.84064 20.7655C9.84064 21.8523 9.54377 22.8137 9.09 23.489C8.63413 24.1675 8.05812 24.5115 7.48764 24.5115C6.91716 24.5115 6.34116 24.1675 5.88528 23.489C5.43151 22.8137 5.13464 21.8523 5.13464 20.7655C5.13464 19.6787 5.43151 18.7173 5.88528 18.042C6.34116 17.3635 6.91716 17.0195 7.48764 17.0195C8.05812 17.0195 8.63413 17.3635 9.09 18.042C9.54377 18.7173 9.84064 19.6787 9.84064 20.7655Z" fill="#CCA365" stroke="#3D4856"/>
<line x1="0.195312" y1="19.793" x2="7.80331" y2="19.793" stroke="#3D4856"/>
<line x1="0.195312" y1="19.793" x2="7.80331" y2="19.793" stroke="#3D4856"/>
<line x1="0.195312" y1="21.6836" x2="7.80331" y2="21.6836" stroke="#3D4856"/>
<line x1="0.195312" y1="21.6836" x2="7.80331" y2="21.6836" stroke="#3D4856"/>
<path d="M9.84064 4.72253C9.84064 5.80928 9.54377 6.7707 9.09 7.44602C8.63413 8.12448 8.05812 8.4685 7.48764 8.4685C6.91716 8.4685 6.34116 8.12448 5.88528 7.44602C5.43151 6.7707 5.13464 5.80928 5.13464 4.72253C5.13464 3.63578 5.43151 2.67436 5.88528 1.99904C6.34116 1.32058 6.91716 0.976562 7.48764 0.976562C8.05812 0.976562 8.63413 1.32058 9.09 1.99904C9.54377 2.67436 9.84064 3.63578 9.84064 4.72253Z" fill="#CCA365" stroke="#3D4856"/>
<line x1="0.195312" y1="3.75195" x2="7.80331" y2="3.75195" stroke="#3D4856"/>
<line x1="0.195312" y1="3.75195" x2="7.80331" y2="3.75195" stroke="#3D4856"/>
<line x1="0.195312" y1="5.64062" x2="7.80331" y2="5.64062" stroke="#3D4856"/>
<line x1="0.195312" y1="5.64062" x2="7.80331" y2="5.64062" stroke="#3D4856"/>
<path d="M9.84064 84.9217C9.84064 86.0085 9.54377 86.9699 9.09 87.6452C8.63413 88.3237 8.05812 88.6677 7.48764 88.6677C6.91716 88.6677 6.34116 88.3237 5.88528 87.6452C5.43151 86.9699 5.13464 86.0085 5.13464 84.9217C5.13464 83.835 5.43151 82.8736 5.88528 82.1983C6.34116 81.5198 6.91716 81.1758 7.48764 81.1758C8.05812 81.1758 8.63413 81.5198 9.09 82.1983C9.54377 82.8736 9.84064 83.835 9.84064 84.9217Z" fill="#CCA365" stroke="#3D4856"/>
<line x1="0.195312" y1="83.9512" x2="7.80331" y2="83.9512" stroke="#3D4856"/>
<line x1="0.195312" y1="83.9512" x2="7.80331" y2="83.9512" stroke="#3D4856"/>
<line x1="0.195312" y1="85.8398" x2="7.80331" y2="85.8398" stroke="#3D4856"/>
<line x1="0.195312" y1="85.8398" x2="7.80331" y2="85.8398" stroke="#3D4856"/>
<path d="M9.84064 68.8846C9.84064 69.9714 9.54377 70.9328 9.09 71.6081C8.63413 72.2866 8.05812 72.6306 7.48764 72.6306C6.91716 72.6306 6.34116 72.2866 5.88528 71.6081C5.43151 70.9328 5.13464 69.9714 5.13464 68.8846C5.13464 67.7979 5.43151 66.8365 5.88528 66.1611C6.34116 65.4827 6.91716 65.1387 7.48764 65.1387C8.05812 65.1387 8.63413 65.4827 9.09 66.1611C9.54377 66.8365 9.84064 67.7979 9.84064 68.8846Z" fill="#CCA365" stroke="#3D4856"/>
<line x1="0.195312" y1="67.9121" x2="7.80331" y2="67.9121" stroke="#3D4856"/>
<line x1="0.195312" y1="67.9121" x2="7.80331" y2="67.9121" stroke="#3D4856"/>
<line x1="0.195312" y1="69.8008" x2="7.80331" y2="69.8008" stroke="#3D4856"/>
<line x1="0.195312" y1="69.8008" x2="7.80331" y2="69.8008" stroke="#3D4856"/>
<path d="M9.84064 277.41C9.84064 278.497 9.54377 279.458 9.09 280.134C8.63413 280.812 8.05812 281.156 7.48764 281.156C6.91716 281.156 6.34116 280.812 5.88528 280.134C5.43151 279.458 5.13464 278.497 5.13464 277.41C5.13464 276.323 5.43151 275.362 5.88528 274.687C6.34116 274.008 6.91716 273.664 7.48764 273.664C8.05812 273.664 8.63413 274.008 9.09 274.687C9.54377 275.362 9.84064 276.323 9.84064 277.41Z" fill="#CCA365" stroke="#3D4856"/>
<line x1="0.195312" y1="276.438" x2="7.80331" y2="276.438" stroke="#3D4856"/>
<line x1="0.195312" y1="276.438" x2="7.80331" y2="276.438" stroke="#3D4856"/>
<line x1="0.195312" y1="278.328" x2="7.80331" y2="278.328" stroke="#3D4856"/>
<line x1="0.195312" y1="278.328" x2="7.80331" y2="278.328" stroke="#3D4856"/>
<path d="M9.84064 261.371C9.84064 262.458 9.54377 263.419 9.09 264.094C8.63413 264.773 8.05812 265.117 7.48764 265.117C6.91716 265.117 6.34116 264.773 5.88528 264.094C5.43151 263.419 5.13464 262.458 5.13464 261.371C5.13464 260.284 5.43151 259.323 5.88528 258.647C6.34116 257.969 6.91716 257.625 7.48764 257.625C8.05812 257.625 8.63413 257.969 9.09 258.647C9.54377 259.323 9.84064 260.284 9.84064 261.371Z" fill="#CCA365" stroke="#3D4856"/>
<line x1="0.195312" y1="260.398" x2="7.80331" y2="260.398" stroke="#3D4856"/>
<line x1="0.195312" y1="260.398" x2="7.80331" y2="260.398" stroke="#3D4856"/>
<line x1="0.195312" y1="262.289" x2="7.80331" y2="262.289" stroke="#3D4856"/>
<line x1="0.195312" y1="262.289" x2="7.80331" y2="262.289" stroke="#3D4856"/>
<path d="M9.84064 245.326C9.84064 246.413 9.54377 247.374 9.09 248.05C8.63413 248.728 8.05812 249.072 7.48764 249.072C6.91716 249.072 6.34116 248.728 5.88528 248.05C5.43151 247.374 5.13464 246.413 5.13464 245.326C5.13464 244.239 5.43151 243.278 5.88528 242.603C6.34116 241.924 6.91716 241.58 7.48764 241.58C8.05812 241.58 8.63413 241.924 9.09 242.603C9.54377 243.278 9.84064 244.239 9.84064 245.326Z" fill="#CCA365" stroke="#3D4856"/>
<line x1="0.195312" y1="244.355" x2="7.80331" y2="244.355" stroke="#3D4856"/>
<line x1="0.195312" y1="244.355" x2="7.80331" y2="244.355" stroke="#3D4856"/>
<line x1="0.195312" y1="246.242" x2="7.80331" y2="246.242" stroke="#3D4856"/>
<line x1="0.195312" y1="246.242" x2="7.80331" y2="246.242" stroke="#3D4856"/>
<path d="M9.84064 229.285C9.84064 230.372 9.54377 231.333 9.09 232.009C8.63413 232.687 8.05812 233.031 7.48764 233.031C6.91716 233.031 6.34116 232.687 5.88528 232.009C5.43151 231.333 5.13464 230.372 5.13464 229.285C5.13464 228.198 5.43151 227.237 5.88528 226.562C6.34116 225.883 6.91716 225.539 7.48764 225.539C8.05812 225.539 8.63413 225.883 9.09 226.562C9.54377 227.237 9.84064 228.198 9.84064 229.285Z" fill="#CCA365" stroke="#3D4856"/>
<line x1="0.195312" y1="228.312" x2="7.80331" y2="228.312" stroke="#3D4856"/>
<line x1="0.195312" y1="228.312" x2="7.80331" y2="228.312" stroke="#3D4856"/>
<line x1="0.195312" y1="230.203" x2="7.80331" y2="230.203" stroke="#3D4856"/>
<line x1="0.195312" y1="230.203" x2="7.80331" y2="230.203" stroke="#3D4856"/>
<path d="M9.84064 341.57C9.84064 342.657 9.54377 343.618 9.09 344.294C8.63413 344.972 8.05812 345.316 7.48764 345.316C6.91716 345.316 6.34116 344.972 5.88528 344.294C5.43151 343.618 5.13464 342.657 5.13464 341.57C5.13464 340.483 5.43151 339.522 5.88528 338.847C6.34116 338.168 6.91716 337.824 7.48764 337.824C8.05812 337.824 8.63413 338.168 9.09 338.847C9.54377 339.522 9.84064 340.483 9.84064 341.57Z" fill="#CCA365" stroke="#3D4856"/>
<line x1="0.195312" y1="340.598" x2="7.80331" y2="340.598" stroke="#3D4856"/>
<line x1="0.195312" y1="340.598" x2="7.80331" y2="340.598" stroke="#3D4856"/>
<line x1="0.195312" y1="342.486" x2="7.80331" y2="342.486" stroke="#3D4856"/>
<line x1="0.195312" y1="342.486" x2="7.80331" y2="342.486" stroke="#3D4856"/>
<path d="M9.84064 325.531C9.84064 326.618 9.54377 327.579 9.09 328.255C8.63413 328.933 8.05812 329.277 7.48764 329.277C6.91716 329.277 6.34116 328.933 5.88528 328.255C5.43151 327.579 5.13464 326.618 5.13464 325.531C5.13464 324.444 5.43151 323.483 5.88528 322.808C6.34116 322.129 6.91716 321.785 7.48764 321.785C8.05812 321.785 8.63413 322.129 9.09 322.808C9.54377 323.483 9.84064 324.444 9.84064 325.531Z" fill="#CCA365" stroke="#3D4856"/>
<line x1="0.195312" y1="324.562" x2="7.80331" y2="324.562" stroke="#3D4856"/>
<line x1="0.195312" y1="324.562" x2="7.80331" y2="324.562" stroke="#3D4856"/>
<line x1="0.195312" y1="326.449" x2="7.80331" y2="326.449" stroke="#3D4856"/>
<line x1="0.195312" y1="326.449" x2="7.80331" y2="326.449" stroke="#3D4856"/>
<path d="M9.84064 309.488C9.84064 310.575 9.54377 311.536 9.09 312.212C8.63413 312.89 8.05812 313.234 7.48764 313.234C6.91716 313.234 6.34116 312.89 5.88528 312.212C5.43151 311.536 5.13464 310.575 5.13464 309.488C5.13464 308.401 5.43151 307.44 5.88528 306.765C6.34116 306.086 6.91716 305.742 7.48764 305.742C8.05812 305.742 8.63413 306.086 9.09 306.765C9.54377 307.44 9.84064 308.401 9.84064 309.488Z" fill="#CCA365" stroke="#3D4856"/>
<line x1="0.195312" y1="308.516" x2="7.80331" y2="308.516" stroke="#3D4856"/>
<line x1="0.195312" y1="308.516" x2="7.80331" y2="308.516" stroke="#3D4856"/>
<line x1="0.195312" y1="310.406" x2="7.80331" y2="310.406" stroke="#3D4856"/>
<line x1="0.195312" y1="310.406" x2="7.80331" y2="310.406" stroke="#3D4856"/>
<path d="M9.84064 293.449C9.84064 294.536 9.54377 295.497 9.09 296.173C8.63413 296.851 8.05812 297.195 7.48764 297.195C6.91716 297.195 6.34116 296.851 5.88528 296.173C5.43151 295.497 5.13464 294.536 5.13464 293.449C5.13464 292.362 5.43151 291.401 5.88528 290.726C6.34116 290.047 6.91716 289.703 7.48764 289.703C8.05812 289.703 8.63413 290.047 9.09 290.726C9.54377 291.401 9.84064 292.362 9.84064 293.449Z" fill="#CCA365" stroke="#3D4856"/>
<line x1="0.195312" y1="292.477" x2="7.80331" y2="292.477" stroke="#3D4856"/>
<line x1="0.195312" y1="292.477" x2="7.80331" y2="292.477" stroke="#3D4856"/>
<line x1="0.195312" y1="294.363" x2="7.80331" y2="294.363" stroke="#3D4856"/>
<line x1="0.195312" y1="294.363" x2="7.80331" y2="294.363" stroke="#3D4856"/>
</svg>
