<!--?xml version="1.0" encoding="utf-8"?-->
<!-- Generator: Adobe Illustrator 18.1.1, SVG Export Plug-In . SVG Version: 6.00 Build 0)  -->

<svg version="1.1" id="_x32_" xmlns="http://www.w3.org/2000/svg" xmlns:xlink="http://www.w3.org/1999/xlink" x="0px" y="0px" viewBox="0 0 512 512" style="width: 48px; height: 48px; opacity: 1;" xml:space="preserve">
<style type="text/css">
	.st0{fill:#4B4B4B;}
</style>
<g>
	<path class="st0" d="M425.799,120.352c-12.509,0-22.645,10.137-22.645,22.629v15.162l-62.262,12.053
		c-22.638,0-50.932-14.16-84.892-14.16c-33.959,0-62.254,14.16-84.891,14.16l-62.262-12.053v-15.162
		c0-12.492-10.136-22.629-22.636-22.629c-12.501,0-22.638,10.137-22.638,22.629v70.756c0,12.492,10.137,22.628,22.638,22.628
		c12.5,0,22.636-10.136,22.636-22.628v-13.338c18.083,3.782,43.018,8.958,59.426,12.244c25.972,5.192,35.353,41.259,76.048,47.19
		v74.854c-6.528,0.548-11.68,5.964-11.68,12.633c0,1.418,0.291,2.771,0.722,4.048h-20.389c-10.634,0-19.261,8.626-19.261,19.261
		v6.785l-51.91-20.762c-2.961-1.186-6.329-0.83-8.975,0.962c-2.647,1.792-4.231,4.786-4.231,7.98v70.64
		c0,3.194,1.584,6.188,4.231,7.98c2.646,1.792,6.014,2.148,8.975,0.962l51.91-20.762v6.785c0,10.634,8.628,19.261,19.261,19.261
		h103.048c10.635,0,19.261-8.627,19.261-19.261v-60.57c0-10.635-8.626-19.261-19.261-19.261h-37.385
		c0.432-1.278,0.721-2.63,0.721-4.048c0-6.669-5.151-12.085-11.68-12.633v-74.854c40.696-5.931,50.078-41.997,76.049-47.19
		c16.407-3.286,41.342-8.461,59.426-12.244v13.338c0,12.492,10.136,22.628,22.645,22.628c12.492,0,22.628-10.136,22.628-22.628
		v-70.756C448.427,130.488,438.291,120.352,425.799,120.352z" style="fill: rgb(51, 122, 183);"></path>
	<rect y="81.258" class="st0" width="172.42" height="29.555" style="fill: rgb(51, 122, 183);"></rect>
	<rect x="339.58" y="81.258" class="st0" width="172.42" height="29.555" style="fill: rgb(51, 122, 183);"></rect>
	<path class="st0" d="M86.21,61.54c-7.142,0-12.932,5.79-12.932,12.94h25.864C99.141,67.33,93.352,61.54,86.21,61.54z" style="fill: rgb(51, 122, 183);"></path>
	<path class="st0" d="M425.799,61.54c-7.15,0-12.941,5.79-12.941,12.94h25.864C438.722,67.33,432.932,61.54,425.799,61.54z" style="fill: rgb(51, 122, 183);"></path>
</g>
</svg>
